<?xml version="1.0" encoding="utf-8"?>
<!-- Generator: Adobe Illustrator 21.0.2, SVG Export Plug-In . SVG Version: 6.00 Build 0)  -->
<svg version="1.2" baseProfile="tiny" id="Layer_1" xmlns="http://www.w3.org/2000/svg" xmlns:xlink="http://www.w3.org/1999/xlink"
	 x="0px" y="0px" viewBox="0 0 1074 422" xml:space="preserve">
<g>
	<g>
		<linearGradient id="SVGID_1_" gradientUnits="userSpaceOnUse" x1="5.0161" y1="211.0882" x2="416.7537" y2="211.0882">
			<stop  offset="0" style="stop-color:#EA242F"/>
			<stop  offset="1" style="stop-color:#E42332"/>
		</linearGradient>
		<path fill="url(#SVGID_1_)" d="M416.754,371.208c0,25.266-20.482,45.749-45.749,45.749H50.765
			c-25.266,0-45.749-20.482-45.749-45.749V50.968c0-25.266,20.482-45.749,45.749-45.749h320.24
			c25.266,0,45.749,20.482,45.749,45.749V371.208z"/>
		<path fill="#BF2033" d="M403.075,18.365L18.162,403.278c8.299,8.436,19.834,13.679,32.603,13.679h320.24
			c25.266,0,45.749-20.482,45.749-45.749V50.968C416.754,38.199,411.511,26.664,403.075,18.365z"/>
		<g>
			<g>
				<path fill="#FFFFFF" d="M229.572,157.22c0.248,12.421-10.701,21.342-20.384,27.114c-11.014,6.567-23.322,10.37-34.694,16.212
					c-4.136,2.125-12.244,6.154-12.244,11.933c0,6.489,3.817,15.269,29.391,15.269h32.827c38.171,0,64.891,12.978,64.891,52.294
					c0,24.43-13.36,43.134-30.155,53.44c-17.177,10.688-35.499,14.887-59.929,14.887c-42.37,0-78.633-16.796-78.633-53.44
					c0-25.575,25.957-35.117,41.607-40.08v-0.763c-17.177-1.908-30.919-15.268-30.919-29.01c0-14.505,12.215-24.811,31.683-32.064
					c21.182-7.892,45.616-15.279,62.526-31.015C225.539,161.997,228.511,159.448,229.572,157.22z M208.055,335.01
					c25.957,0,50.004-13.742,50.004-41.607c0-26.72-18.704-35.499-54.585-35.499c-20.23,0-31.3,2.29-38.935,8.016
					c-7.634,5.726-12.215,13.742-12.215,25.957c0,25.957,23.666,43.134,55.349,43.134H208.055z"/>
			</g>
			<path fill="#FFFFFF" d="M301.127,86.01l-3.054-3.054l-45.424,11.451c-10.307-6.871-30.156-11.07-46.57-11.07
				c-56.111,0-74.433,32.445-74.433,59.929c0,22.825,8.87,36.614,19.376,44.732c14.758-3.878,23.822-6.619,29.287-8.797
				c-7.845-7.235-12.019-18.283-12.019-35.171c0-35.499,18.322-47.332,36.644-47.332h0.381c17.177,0,35.118,12.596,35.118,47.332
				c0,10.121-1.768,18.517-4.907,25.197c0.004-0.005,0.009-0.012,0.014-0.017c0,0-0.032,0.07-0.094,0.197
				c-1.216,2.556-2.637,4.854-4.236,6.902c-4.887,6.867-19.972,17.808-36.838,25.741c1.01,0.025,8.729,0,9.417,0
				c34.736,0,72.907-13.742,72.907-58.402c0-14.505-5.344-28.629-11.451-34.736h29.01L301.127,86.01z"/>
		</g>
	</g>
	<g>
		<path fill="#FFFFFF" d="M572.094,147.104c-1.226,0.153-2.874,0.398-4.943,0.728c-2.069,0.333-3.747,0.805-5.019,1.418
			c-1.533,0.766-2.621,1.855-3.257,3.257c-0.644,1.406-0.958,3.054-0.958,4.943v8.43c0,6.131,0.038,10.269,0.115,12.415
			c0.077,2.146,0.161,3.908,0.268,5.288c-6.797,3.065-13.564,5.418-20.308,7.05c-6.744,1.632-13.365,2.452-19.848,2.452
			c-6.951,0-13.641-1.303-20.078-3.908c-6.437-2.609-12.062-6.315-16.859-11.119c-4.859-4.859-8.713-10.763-11.572-17.718
			c-2.866-6.951-4.291-14.721-4.291-23.312c0-8.28,1.364-15.963,4.1-23.044c2.728-7.081,6.598-13.227,11.61-18.442
			c4.851-5.111,10.637-9.085,17.357-11.924c6.713-2.839,13.909-4.257,21.572-4.257c6.131,0,11.464,0.743,16.016,2.222
			c4.544,1.483,8.552,3.272,12.031,5.364l3.142-5.211h6.131l0.69,38.01h-6.284c-1.077-4.188-2.406-8.315-3.993-12.376
			c-1.586-4.062-3.632-7.702-6.138-10.92s-5.56-5.786-9.165-7.702c-3.609-1.916-7.916-2.874-12.928-2.874
			c-5.472,0-10.357,1.111-14.652,3.334c-4.299,2.226-8.031,5.537-11.204,9.932c-3.119,4.245-5.525,9.541-7.211,15.878
			c-1.686,6.338-2.529,13.422-2.529,21.243c0,6.905,0.828,13.411,2.491,19.519c1.663,6.108,4.081,11.388,7.253,15.836
			c3.169,4.548,7.135,8.131,11.89,10.74c4.759,2.606,10.154,3.908,16.193,3.908c4.506,0,8.606-0.69,12.315-2.069
			s6.33-2.835,7.866-4.368c0.41-2.655,0.625-5.338,0.655-8.046c0.023-2.705,0.038-5.004,0.038-6.897v-5.977
			c0-2.146-0.299-4.046-0.881-5.709c-0.59-1.659-1.801-2.874-3.64-3.64c-1.686-0.766-3.977-1.341-6.859-1.724
			c-2.889-0.383-5.15-0.625-6.782-0.728v-5.594h47.666V147.104z"/>
		<path fill="#FFFFFF" d="M615.315,190.478h-36.477v-5.058c1.172-0.1,2.383-0.203,3.64-0.307c1.249-0.1,2.337-0.307,3.257-0.613
			c1.425-0.46,2.491-1.261,3.18-2.41c0.69-1.146,1.035-2.64,1.035-4.479v-46.612c0-1.636-0.375-3.127-1.111-4.479
			c-0.743-1.349-1.778-2.487-3.104-3.403c-0.973-0.613-2.376-1.138-4.215-1.571c-1.839-0.433-3.525-0.701-5.058-0.805v-5.058
			l26.668-1.686l1.073,1.073v61.613c0,1.789,0.341,3.272,1.027,4.445c0.682,1.176,1.763,2.046,3.234,2.606
			c1.115,0.46,2.207,0.831,3.272,1.111c1.065,0.284,2.257,0.475,3.579,0.575V190.478z M605.736,84.188
			c0,2.912-0.958,5.456-2.874,7.625c-1.916,2.173-4.284,3.257-7.089,3.257c-2.606,0-4.866-1.035-6.782-3.104
			s-2.874-4.429-2.874-7.089c0-2.809,0.958-5.261,2.874-7.357c1.916-2.092,4.177-3.142,6.782-3.142c2.912,0,5.295,0.985,7.165,2.95
			C604.801,79.298,605.736,81.582,605.736,84.188z"/>
		<path fill="#FFFFFF" d="M674.552,153.464c2.092,1.839,3.701,3.962,4.828,6.361c1.119,2.402,1.686,5.341,1.686,8.813
			c0,7-2.621,12.721-7.855,17.166c-5.242,4.445-12.024,6.667-20.346,6.667c-4.399,0-8.445-0.793-12.146-2.376
			c-3.709-1.582-6.353-3.038-7.932-4.368l-1.533,4.981h-5.747l-0.766-26.285h5.288c0.406,2,1.272,4.334,2.606,6.997
			c1.326,2.667,2.935,5.077,4.828,7.23c1.992,2.257,4.376,4.154,7.165,5.69c2.782,1.54,5.908,2.307,9.388,2.307
			c4.905,0,8.683-1.119,11.342-3.353c2.651-2.234,3.985-5.437,3.985-9.598c0-2.146-0.421-3.996-1.264-5.556
			c-0.843-1.556-2.084-2.924-3.717-4.1c-1.686-1.172-3.755-2.234-6.207-3.18c-2.452-0.943-5.188-1.878-8.2-2.797
			c-2.406-0.713-5.073-1.697-8.008-2.95c-2.943-1.249-5.456-2.72-7.548-4.406c-2.253-1.786-4.092-3.985-5.518-6.59
			c-1.433-2.606-2.146-5.671-2.146-9.196c0-6.18,2.299-11.418,6.897-15.71c4.598-4.291,10.752-6.437,18.469-6.437
			c2.958,0,5.985,0.383,9.081,1.149c3.088,0.766,5.602,1.686,7.548,2.759l1.763-3.985h5.518l1.149,24.293h-5.288
			c-1.073-5.437-3.387-9.863-6.935-13.273c-3.556-3.41-7.886-5.119-12.989-5.119c-4.192,0-7.487,1.058-9.886,3.165
			c-2.406,2.107-3.602,4.655-3.602,7.64c0,2.299,0.391,4.215,1.188,5.747c0.789,1.533,1.977,2.835,3.563,3.908
			c1.533,1.023,3.456,1.981,5.786,2.874c2.322,0.897,5.196,1.904,8.621,3.027c3.372,1.073,6.552,2.326,9.541,3.755
			C670.146,150.146,672.606,151.728,674.552,153.464z"/>
		<path fill="#FFFFFF" d="M727.889,190.478h-36.861v-5.058c1.172-0.1,2.422-0.215,3.755-0.345c1.326-0.126,2.422-0.322,3.295-0.575
			c1.425-0.46,2.498-1.264,3.219-2.414c0.713-1.149,1.073-2.648,1.073-4.491V90.019c0-1.839-0.398-3.563-1.188-5.177
			c-0.797-1.609-1.832-2.878-3.104-3.797c-0.92-0.613-2.606-1.172-5.058-1.686c-2.452-0.51-4.422-0.816-5.901-0.92v-4.905
			l28.431-1.686l1.073,1.15v103.685c0,1.789,0.329,3.257,0.996,4.406c0.659,1.15,1.732,2.031,3.219,2.644
			c1.119,0.513,2.23,0.897,3.334,1.149c1.096,0.257,2.337,0.437,3.717,0.536V190.478z"/>
		<path fill="#FFFFFF" d="M804.522,172.699c-3.173,6.031-7.41,10.832-12.721,14.407c-5.318,3.575-11.418,5.364-18.315,5.364
			c-6.085,0-11.411-1.073-15.978-3.219c-4.575-2.146-8.345-5.058-11.303-8.736c-2.966-3.678-5.173-7.97-6.629-12.874
			c-1.456-4.905-2.184-10.089-2.184-15.557c0-4.905,0.774-9.717,2.337-14.445c1.556-4.724,3.839-8.978,6.859-12.759
			c2.912-3.625,6.522-6.552,10.844-8.775c4.314-2.222,9.158-3.334,14.522-3.334c5.518,0,10.238,0.87,14.177,2.606
			c3.931,1.74,7.127,4.115,9.579,7.127c2.345,2.862,4.1,6.234,5.249,10.116c1.15,3.885,1.724,8.1,1.724,12.644v5.058h-50.042
			c0,4.966,0.467,9.472,1.418,13.518c0.943,4.046,2.437,7.602,4.483,10.675c1.992,2.973,4.598,5.315,7.817,7.027
			c3.219,1.717,7.05,2.575,11.495,2.575c4.544,0,8.468-1.065,11.763-3.196c3.295-2.13,6.476-5.97,9.541-11.518L804.522,172.699z
			 M787.586,143.885c0-2.851-0.245-5.908-0.728-9.165c-0.49-3.261-1.264-5.985-2.337-8.177c-1.18-2.345-2.789-4.253-4.828-5.732
			c-2.046-1.475-4.675-2.215-7.893-2.215c-5.364,0-9.824,2.23-13.373,6.682c-3.556,4.46-5.479,10.66-5.786,18.607H787.586z"/>
		<path fill="#FFFFFF" d="M896.712,190.478h-36.937v-5.058c1.172-0.1,2.46-0.203,3.87-0.307c1.402-0.1,2.567-0.307,3.487-0.613
			c1.425-0.46,2.491-1.264,3.18-2.414c0.69-1.149,1.035-2.644,1.035-4.483V138.75c0-5.364-1.272-9.503-3.805-12.415
			c-2.533-2.912-5.621-4.368-9.253-4.368c-2.717,0-5.2,0.421-7.456,1.264c-2.253,0.843-4.245,1.878-5.985,3.104
			c-1.694,1.176-3.035,2.441-4.039,3.793c-0.996,1.356-1.724,2.441-2.184,3.257v43.451c0,1.74,0.352,3.169,1.073,4.291
			c0.713,1.127,1.786,1.992,3.219,2.606c1.073,0.513,2.23,0.897,3.487,1.149c1.249,0.257,2.537,0.437,3.87,0.536v5.058h-37.014
			v-5.058c1.172-0.1,2.383-0.203,3.64-0.307c1.249-0.1,2.337-0.307,3.257-0.613c1.425-0.46,2.491-1.261,3.18-2.41
			c0.69-1.146,1.035-2.64,1.035-4.479v-46.612c0-1.736-0.376-3.33-1.111-4.786c-0.743-1.452-1.778-2.636-3.104-3.556
			c-0.973-0.613-2.123-1.061-3.448-1.341c-1.333-0.28-2.759-0.471-4.292-0.575v-5.058l25.136-1.686l1.073,1.073v10.652h0.383
			c1.226-1.226,2.759-2.694,4.598-4.406c1.839-1.709,3.571-3.104,5.211-4.177c1.885-1.226,4.138-2.245,6.744-3.065
			c2.606-0.816,5.541-1.226,8.813-1.226c7.25,0,12.629,2.261,16.131,6.782c3.495,4.521,5.249,10.537,5.249,18.047v39.313
			c0,1.789,0.307,3.234,0.92,4.33c0.613,1.1,1.655,1.954,3.142,2.567c1.226,0.513,2.284,0.87,3.18,1.073
			c0.889,0.207,2.13,0.36,3.717,0.46V190.478z"/>
		<path fill="#FFFFFF" d="M534.543,297.535c2.299,2.556,3.993,5.353,5.096,8.391c1.096,3.042,1.648,6.579,1.648,10.614
			c0,9.606-3.556,17.526-10.652,23.756c-7.104,6.234-15.917,9.349-26.439,9.349c-4.859,0-9.709-0.755-14.56-2.261
			c-4.859-1.506-9.043-3.334-12.568-5.479l-3.295,5.594h-6.131l-1.073-37.244h6.207c1.272,4.598,2.766,8.752,4.483,12.453
			c1.709,3.705,3.97,7.165,6.782,10.384c2.652,3.016,5.755,5.418,9.311,7.204c3.548,1.789,7.671,2.682,12.376,2.682
			c3.525,0,6.598-0.46,9.234-1.379c2.629-0.92,4.759-2.226,6.399-3.916c1.632-1.686,2.843-3.671,3.64-5.947
			c0.789-2.276,1.188-4.897,1.188-7.866c0-4.349-1.226-8.403-3.678-12.162c-2.452-3.759-6.108-6.61-10.959-8.556
			c-3.326-1.322-7.127-2.786-11.418-4.387s-8.001-3.115-11.112-4.541c-6.131-2.759-10.897-6.372-14.292-10.844
			c-3.403-4.468-5.096-10.303-5.096-17.503c0-4.138,0.843-7.993,2.529-11.568c1.686-3.575,4.085-6.771,7.204-9.575
			c2.958-2.659,6.46-4.74,10.499-6.246c4.031-1.506,8.246-2.261,12.645-2.261c5.004,0,9.487,0.766,13.449,2.299
			c3.954,1.533,7.571,3.322,10.844,5.364l3.142-5.211h6.131l0.613,36.094h-6.207c-1.127-4.138-2.391-8.096-3.793-11.878
			c-1.41-3.778-3.234-7.204-5.479-10.269c-2.199-2.962-4.882-5.326-8.047-7.089c-3.173-1.763-7.05-2.644-11.648-2.644
			c-4.859,0-8.997,1.559-12.415,4.675c-3.426,3.119-5.134,6.924-5.134,11.418c0,4.701,1.096,8.598,3.295,11.687
			c2.192,3.092,5.387,5.633,9.579,7.625c3.724,1.789,7.395,3.334,10.997,4.636c3.602,1.303,7.089,2.698,10.46,4.177
			c3.065,1.33,6.016,2.835,8.851,4.521C529.984,293.32,532.444,295.289,534.543,297.535z"/>
		<path fill="#FFFFFF" d="M626.656,308.876c0,5.315-0.847,10.537-2.533,15.672c-1.69,5.134-4.092,9.491-7.211,13.066
			c-3.529,4.088-7.621,7.127-12.273,9.119c-4.655,1.992-9.87,2.989-15.652,2.989c-4.809,0-9.384-0.908-13.729-2.72
			c-4.349-1.812-8.207-4.456-11.587-7.932c-3.322-3.422-5.97-7.598-7.939-12.53c-1.969-4.928-2.95-10.46-2.95-16.591
			c0-11.802,3.437-21.457,10.315-28.967c6.882-7.51,15.894-11.265,27.044-11.265c10.583,0,19.319,3.563,26.193,10.69
			C623.216,287.534,626.656,297.025,626.656,308.876z M610.793,309.03c0-3.832-0.387-7.878-1.153-12.146
			c-0.77-4.265-1.92-7.878-3.452-10.844c-1.64-3.165-3.793-5.709-6.453-7.625s-5.908-2.874-9.748-2.874
			c-3.947,0-7.311,0.973-10.096,2.912c-2.793,1.943-5.054,4.598-6.794,7.97c-1.64,3.119-2.789,6.667-3.456,10.652
			c-0.667,3.985-0.996,7.843-0.996,11.572c0,4.905,0.395,9.441,1.188,13.602c0.793,4.165,2.061,7.882,3.801,11.15
			c1.74,3.272,3.927,5.839,6.564,7.702c2.636,1.866,5.897,2.797,9.79,2.797c6.395,0,11.464-3.088,15.196-9.273
			C608.924,328.445,610.793,319.912,610.793,309.03z"/>
		<path fill="#FFFFFF" d="M693.787,237.991c0,2.299-0.613,4.242-1.839,5.824c-1.226,1.586-3.096,2.376-5.594,2.376
			c-1.586,0-2.981-0.33-4.177-0.996c-1.203-0.663-2.314-1.556-3.333-2.682c-1.027-1.123-1.969-2.399-2.835-3.832
			c-0.874-1.429-1.609-2.579-2.222-3.449c-3.426,0.153-6.069,2.537-7.932,7.15c-1.87,4.613-2.797,11.97-2.797,22.063v7.725h19.465
			v7.357h-19.465v54.256c0,1.789,0.345,3.245,1.035,4.368c0.69,1.126,1.77,1.969,3.257,2.529c1.226,0.46,2.858,0.831,4.904,1.111
			c2.038,0.284,3.801,0.475,5.288,0.575v5.058h-39.849v-5.058c1.172-0.1,2.383-0.203,3.64-0.307c1.249-0.1,2.337-0.307,3.257-0.613
			c1.425-0.46,2.491-1.264,3.18-2.414s1.035-2.644,1.035-4.483v-55.023H633.86v-7.357h14.943v-4.82
			c0-11.472,2.973-20.768,8.928-27.879c5.947-7.119,13.396-10.675,22.339-10.675c4.544,0,7.97,0.897,10.269,2.682
			C692.638,233.266,693.787,235.439,693.787,237.991z"/>
		<path fill="#FFFFFF" d="M735.246,344.128c-3.326,1.379-6.468,2.544-9.426,3.487c-2.966,0.943-6.59,1.418-10.882,1.418
			c-6.338,0-10.798-1.598-13.372-4.79c-2.583-3.192-3.87-7.702-3.87-13.526v-51.191h-13.641v-7.357h13.947v-23.526h13.947v23.526
			h21.687v7.357h-21.534v42.225c0,3.169,0.115,5.813,0.345,7.932c0.23,2.123,0.774,3.973,1.648,5.556
			c0.812,1.483,2.038,2.606,3.678,3.372c1.632,0.766,3.832,1.149,6.59,1.149c1.272,0,3.15-0.115,5.633-0.345
			c2.475-0.23,4.222-0.521,5.249-0.881V344.128z"/>
		<path fill="#FFFFFF" d="M855.33,276.767c-2.146,0.207-4.46,1.1-6.935,2.682c-2.483,1.586-4.284,3.962-5.403,7.127
			c-2.56,7.51-4.974,14.625-7.242,21.342c-2.276,6.721-4.82,14.269-7.625,22.645c-0.92,2.659-1.854,5.518-2.797,8.583
			c-0.95,3.065-1.801,6.004-2.567,8.813h-6.537l-20.384-55.697l-20.423,55.697h-6.299c-3.832-11.342-7.579-22.591-11.227-33.757
			c-3.655-11.162-6.889-20.883-9.694-29.159c-0.82-2.399-2.376-4.291-4.675-5.671s-4.521-2.196-6.667-2.452v-5.058h33.7v5.364
			c-1.686,0.054-3.514,0.333-5.479,0.843c-1.966,0.513-2.95,1.356-2.95,2.529c0,0.207,0.088,0.64,0.268,1.303
			c0.18,0.667,0.395,1.379,0.651,2.146c1.636,5.357,3.483,11.334,5.552,17.936s4.736,15.185,8.004,25.737l19.269-54.325h7.426
			l19.687,53.567c2.199-6.832,4.383-13.449,6.56-19.848c2.169-6.399,4.077-12.403,5.713-18.013c0.356-1.326,0.701-2.537,1.038-3.636
			c0.33-1.096,0.498-2.184,0.498-3.257c0-0.92-0.414-1.736-1.226-2.452c-0.82-0.713-1.816-1.303-2.989-1.763
			c-1.027-0.406-2.138-0.713-3.334-0.92c-1.203-0.203-2.084-0.307-2.644-0.307v-4.905h28.73V276.767z"/>
		<path fill="#FFFFFF" d="M930.048,346.044c-2.406,0.87-4.514,1.571-6.322,2.107c-1.816,0.536-3.87,0.805-6.169,0.805
			c-3.985,0-7.165-0.935-9.541-2.797c-2.376-1.862-3.901-4.583-4.56-8.161h-0.46c-3.326,3.678-6.889,6.491-10.69,8.43
			c-3.809,1.939-8.391,2.912-13.756,2.912c-5.671,0-10.338-1.74-13.986-5.211c-3.655-3.471-5.479-8.02-5.479-13.641
			c0-2.912,0.406-5.518,1.226-7.817c0.812-2.299,2.038-4.368,3.678-6.207c1.272-1.533,2.958-2.897,5.058-4.1
			c2.092-1.199,4.062-2.157,5.901-2.874c2.299-0.866,6.958-2.475,13.986-4.828c7.02-2.349,11.763-4.188,14.215-5.518v-7.587
			c0-0.663-0.146-1.939-0.421-3.832c-0.284-1.889-0.881-3.678-1.801-5.364c-1.027-1.889-2.468-3.537-4.33-4.943
			c-1.87-1.402-4.514-2.107-7.932-2.107c-2.353,0-4.537,0.398-6.552,1.188c-2.023,0.793-3.441,1.625-4.253,2.491
			c0,1.023,0.238,2.529,0.728,4.521c0.483,1.992,0.728,3.832,0.728,5.518c0,1.789-0.805,3.426-2.414,4.905
			c-1.609,1.483-3.847,2.222-6.705,2.222c-2.56,0-4.437-0.904-5.633-2.72c-1.203-1.812-1.801-3.843-1.801-6.092
			c0-2.349,0.828-4.598,2.491-6.744c1.655-2.146,3.816-4.062,6.476-5.747c2.299-1.429,5.081-2.644,8.353-3.64
			c3.265-0.996,6.46-1.494,9.579-1.494c4.291,0,8.031,0.295,11.227,0.881c3.188,0.59,6.092,1.855,8.698,3.793
			c2.606,1.893,4.583,4.46,5.939,7.702c1.349,3.245,2.031,7.422,2.031,12.53c0,7.307-0.077,13.783-0.23,19.427
			c-0.153,5.648-0.23,11.817-0.23,18.507c0,1.992,0.345,3.579,1.035,4.751c0.69,1.176,1.747,2.173,3.18,2.989
			c0.766,0.46,1.977,0.717,3.64,0.766c1.655,0.054,3.357,0.077,5.096,0.077V346.044z M903.303,305.581
			c-4.345,1.28-8.154,2.537-11.418,3.763c-3.272,1.23-6.315,2.766-9.119,4.606c-2.56,1.743-4.575,3.805-6.054,6.184
			c-1.487,2.383-2.222,5.211-2.222,8.487c0,4.249,1.111,7.372,3.334,9.368c2.222,2,5.042,2.996,8.468,2.996
			c3.625,0,6.82-0.881,9.579-2.651c2.759-1.763,5.081-3.851,6.974-6.257L903.303,305.581z"/>
		<path fill="#FFFFFF" d="M995.416,281.595c0,2.606-0.644,4.92-1.916,6.935c-1.28,2.019-3.249,3.027-5.901,3.027
			c-2.866,0-5.05-0.74-6.552-2.222c-1.51-1.479-2.261-3.115-2.261-4.905c0-1.123,0.084-2.146,0.268-3.065
			c0.176-0.92,0.345-1.839,0.498-2.759c-2.406,0-5.211,0.973-8.43,2.912c-3.219,1.943-5.954,4.701-8.2,8.276v43.988
			c0,1.789,0.345,3.245,1.035,4.368c0.69,1.126,1.77,1.969,3.257,2.529c1.272,0.513,2.92,0.897,4.943,1.15
			c2.015,0.257,3.763,0.437,5.249,0.536v5.058h-39.849v-5.058c1.172-0.1,2.383-0.203,3.64-0.307c1.249-0.1,2.337-0.307,3.257-0.613
			c1.425-0.46,2.491-1.261,3.18-2.41c0.69-1.146,1.035-2.64,1.035-4.479v-46.612c0-1.582-0.376-3.138-1.111-4.671
			c-0.743-1.529-1.778-2.751-3.104-3.671c-0.973-0.613-2.123-1.061-3.448-1.341c-1.333-0.28-2.759-0.471-4.292-0.575v-5.058
			l25.136-1.686l1.073,1.073v10.652h0.383c3.165-4.138,6.69-7.28,10.575-9.426c3.878-2.146,7.433-3.219,10.652-3.219
			c3.219,0,5.832,1.05,7.855,3.142C994.404,275.261,995.416,278.07,995.416,281.595z"/>
		<path fill="#FFFFFF" d="M1068.984,329.644c-3.173,6.031-7.411,10.832-12.721,14.407c-5.318,3.575-11.418,5.364-18.315,5.364
			c-6.085,0-11.411-1.073-15.978-3.219c-4.575-2.146-8.345-5.058-11.303-8.736c-2.966-3.678-5.173-7.97-6.629-12.874
			c-1.456-4.905-2.184-10.089-2.184-15.557c0-4.905,0.774-9.717,2.337-14.445c1.556-4.724,3.839-8.978,6.859-12.759
			c2.912-3.625,6.522-6.552,10.844-8.775c4.314-2.222,9.158-3.334,14.522-3.334c5.518,0,10.238,0.87,14.177,2.606
			c3.931,1.74,7.127,4.115,9.579,7.127c2.345,2.862,4.1,6.234,5.249,10.116c1.15,3.885,1.724,8.1,1.724,12.645v5.058h-50.042
			c0,4.966,0.467,9.472,1.418,13.518c0.943,4.046,2.437,7.602,4.483,10.675c1.992,2.973,4.598,5.315,7.817,7.027
			c3.219,1.717,7.05,2.575,11.495,2.575c4.544,0,8.468-1.065,11.763-3.196c3.295-2.13,6.475-5.97,9.541-11.518L1068.984,329.644z
			 M1052.048,300.83c0-2.851-0.245-5.908-0.728-9.165c-0.49-3.261-1.265-5.985-2.337-8.177c-1.18-2.345-2.789-4.253-4.828-5.732
			c-2.046-1.475-4.675-2.215-7.893-2.215c-5.364,0-9.824,2.23-13.373,6.682c-3.556,4.46-5.479,10.66-5.786,18.607H1052.048z"/>
	</g>
</g>
</svg>
